<?xml version="1.0" encoding="utf-8"?>
<!-- Generator: Adobe Illustrator 19.2.0, SVG Export Plug-In . SVG Version: 6.00 Build 0)  -->
<!DOCTYPE svg PUBLIC "-//W3C//DTD SVG 1.1//EN" "http://www.w3.org/Graphics/SVG/1.1/DTD/svg11.dtd">
<svg version="1.1" id="Layer_1" xmlns="http://www.w3.org/2000/svg" xmlns:xlink="http://www.w3.org/1999/xlink" x="0px" y="0px"
	 viewBox="0 0 600 178" style="enable-background:new 0 0 600 178;" xml:space="preserve">
<style type="text/css">
	.st0{fill:#31B77B;}
	.st1{fill:#FFFFFF;}
</style>
<g>
	<g>
		<path class="st0" d="M242.2,129.6l-6.2-16.2h-38.7l-6.2,16.2h-16.8l33.1-84.3h18.5l33.1,84.3H242.2z M216.7,60.2l-15.2,40.2h30.3
			L216.7,60.2z"/>
		<path class="st0" d="M310.9,129.6v-8.3c-4.7,6.1-11.8,9.9-19.6,9.9c-15.7,0-27.2-11.9-27.2-32c0-19.7,11.4-32.1,27.2-32.1
			c7.6,0,14.7,3.5,19.6,10V45.2h13.3v84.3H310.9z M310.9,111.2V87c-3-4.6-9.5-8.2-15.8-8.2c-10.5,0-17.2,8.5-17.2,20.4
			c0,11.8,6.7,20.2,17.2,20.2C301.4,119.3,307.8,115.8,310.9,111.2z"/>
		<path class="st0" d="M426.4,129.6V92.8h-43.9v36.8h-14.8V45.2h14.8v34.5h43.9V45.2h14.8v84.3H426.4z"/>
		<path class="st0" d="M451.9,99c0-17.4,12-32,31.4-32c19.6,0,31.5,14.5,31.5,32c0,17.6-11.9,32.1-31.5,32.1
			C463.9,131.1,451.9,116.5,451.9,99z M501,99c0-10.7-6.3-20.2-17.7-20.2c-11.3,0-17.6,9.5-17.6,20.2c0,10.9,6.3,20.4,17.6,20.4
			C494.7,119.3,501,109.8,501,99z"/>
		<path class="st0" d="M524.4,99c0-18.5,13-32,31.6-32c11.9,0,19.1,5.1,23.4,10.9l-8.7,8.1c-3.4-4.8-8.1-7.2-14-7.2
			c-11.1,0-18.5,8.3-18.5,20.2s7.3,20.4,18.5,20.4c5.9,0,10.6-2.5,14-7.2l8.7,8.1c-4.3,5.8-11.5,10.9-23.4,10.9
			C537.4,131.1,524.4,117.5,524.4,99z"/>
	</g>
	<g>
		<rect x="104.8" y="35.2" class="st0" width="26" height="26"/>
		<polygon class="st0" points="104.8,104 88,104 88,78 62,78 62,61.2 88,61.2 88,35.2 24.8,35.2 24.8,141.2 130.8,141.2 130.8,78 
			104.8,78 		"/>
	</g>
</g>
</svg>
