<?xml version="1.0" encoding="UTF-8" standalone="no"?>
<svg
   xmlns:dc="http://purl.org/dc/elements/1.1/"
   xmlns:cc="http://creativecommons.org/ns#"
   xmlns:rdf="http://www.w3.org/1999/02/22-rdf-syntax-ns#"
   xmlns:svg="http://www.w3.org/2000/svg"
   xmlns="http://www.w3.org/2000/svg"
   viewBox="0 0 767.8667 767.8667"
   height="767.8667"
   width="767.8667"
   xml:space="preserve"
   id="svg2"
   version="1.1"><metadata
     id="metadata8"><rdf:RDF><cc:Work
         rdf:about=""><dc:format>image/svg+xml</dc:format><dc:type
           rdf:resource="http://purl.org/dc/dcmitype/StillImage" /></cc:Work></rdf:RDF></metadata><defs
     id="defs6" /><g
     transform="matrix(1.3333333,0,0,-1.3333333,0,767.86667)"
     id="g10"><g
       transform="scale(0.1)"
       id="g12"><path
         id="path14"
         style="fill:#ffffff;fill-opacity:1;fill-rule:nonzero;stroke:none"
         d="m 1092.16,4777.96 c -43.5,-7.09 -73.12,-62.52 -48.74,-211.24 20.86,-127.42 59.3,-198.48 114.38,-189.5 42.54,6.94 72.16,68.33 47.82,217 -21.35,130.38 -59.34,192.61 -113.46,183.74" /><path
         id="path16"
         style="fill:#ffffff;fill-opacity:1;fill-rule:nonzero;stroke:none"
         d="m 1166.56,26.3711 h 199.91 V 542.422 h 323.26 v 183.129 h -323.26 v 366.239 h 373.24 v 183.13 H 1166.56 V 26.3711" /><path
         id="path18"
         style="fill:#ffffff;fill-opacity:1;fill-rule:nonzero;stroke:none"
         d="m 2526.67,4702.2 c 7.12,-43.45 32.66,-66.04 69.4,-59.99 28.01,4.57 45.63,24.28 56.78,40.98 l -23.39,142.9 -21.96,-11.47 c -44.17,-21.17 -91.24,-48.7 -80.83,-112.42" /><path
         id="path20"
         style="fill:#ffffff;fill-opacity:1;fill-rule:nonzero;stroke:none"
         d="m 1699.75,1891.2 c 0,-174.84 -66.64,-233.11 -174.94,-233.11 h -158.34 v 882.34 h 158.34 c 109.93,0 174.94,-58.27 174.94,-233.06 z m -174.94,832.37 H 1166.56 V 1474.95 h 358.25 c 233.19,0 374.88,138.21 374.88,416.25 v 416.17 c 0,278 -141.69,416.2 -374.88,416.2" /><path
         id="path22"
         style="fill:#ffffff;fill-opacity:1;fill-rule:nonzero;stroke:none"
         d="m 572.871,4835.83 -3.902,-0.62 c -18.348,-3.05 -28.348,-8.66 -37.547,-13.11 l 47.644,-290.64 5.789,0.95 c 118.875,19.47 134.356,88.42 117.903,188.82 -11.879,72.42 -46.781,128.22 -129.887,114.6" /><path
         id="path24"
         style="fill:#ffffff;fill-opacity:1;fill-rule:nonzero;stroke:none"
         d="m 3760.38,4847.45 c 22.22,3.64 34.3,8.58 45.96,28.37 l -51.08,311.87 c -16.89,6.16 -33.78,6.39 -47.35,4.14 -64.73,-10.58 -97.01,-92.19 -78.37,-206.13 17.26,-105.26 77.67,-146.91 130.84,-138.25" /><path
         id="path26"
         style="fill:#ffffff;fill-opacity:1;fill-rule:nonzero;stroke:none"
         d="m 3687.43,4155.53 c -73.72,0 -133.55,-59.7 -133.55,-133.4 0,-73.68 59.83,-133.4 133.55,-133.4 73.74,0 133.49,59.72 133.49,133.4 0,73.7 -59.75,133.4 -133.49,133.4" /><path
         id="path28"
         style="fill:#ffffff;fill-opacity:1;fill-rule:nonzero;stroke:none"
         d="m 3476.02,1091.79 h 244.94 V 26.3711 h 199.91 V 1091.79 h 244.95 v 183.13 h -689.8 v -183.13" /><path
         id="path30"
         style="fill:#ffffff;fill-opacity:1;fill-rule:nonzero;stroke:none"
         d="m 3056.33,2540.43 c 78.28,0 126.61,-48.29 126.61,-154.81 v -78.25 h 199.91 v 83.24 c 0,224.73 -144.9,332.96 -326.52,332.96 -178.25,0 -323.19,-89.9 -323.19,-314.68 0,-164.78 466.48,-1999.351 466.48,-2092.542 0,-83.278 -55.02,-133.219 -141.59,-133.219 -85.03,0 -141.67,61.629 -141.67,161.5 v 88.223 h -199.9 v -99.93 C 2716.46,118.199 2869.76,0 3058.03,0 c 188.22,0 341.51,113.211 341.51,341.281 0,159.821 -466.47,1984.399 -466.47,2067.609 0,84.94 49.93,131.54 123.26,131.54" /><path
         id="path32"
         style="fill:#ffffff;fill-opacity:1;fill-rule:nonzero;stroke:none"
         d="m 4413.6,2740.2 c -233.29,0 -374.93,-143.18 -374.93,-432.83 V 1891.2 c 0,-289.7 128.36,-432.86 334.96,-432.86 106.59,0 188.21,49.93 234.89,151.49 v -134.88 h 179.91 v 657.62 h -399.84 v -183.16 h 199.93 v -74.88 c 0,-168.18 -68.26,-233.04 -174.92,-233.04 -109.97,0 -174.94,61.56 -174.94,249.71 v 416.17 c 0,188.14 66.62,249.7 174.94,249.7 109.98,0 174.92,-61.56 174.92,-249.7 v -49.94 h 199.91 v 49.94 c 0,289.65 -141.61,432.83 -374.83,432.83" /><path
         id="path34"
         style="fill:#ffffff;fill-opacity:1;fill-rule:nonzero;stroke:none"
         d="m 2009.86,38.3398 h 573.13 V 221.469 H 2209.77 V 1474.95 h 339.97 v 183.14 h -339.97 v 865.66 h 373.22 v 183.18 H 2009.86 V 38.3398" /><path
         id="path36"
         style="fill:#ffffff;fill-opacity:1;fill-rule:nonzero;stroke:none"
         d="M 5575.75,2723.57 V 1643.11 L 5340.78,2723.57 H 5009.25 V 1474.95 h 183.29 v 1095.46 l 238.25,-1095.46 h 328.23 v 1248.62 h -183.27" /><path
         id="path38"
         style="fill:#ffffff;fill-opacity:1;fill-rule:nonzero;stroke:none"
         d="m 4413.6,4197.16 c -233.29,0 -374.93,-143.21 -374.93,-432.89 V 3348.1 c 0,-289.69 141.64,-432.86 374.93,-432.86 233.22,0 374.83,143.17 374.83,432.86 v 66.59 h -199.91 v -66.59 c 0,-188.13 -66.61,-249.72 -174.92,-249.72 -109.97,0 -174.94,61.59 -174.94,249.72 v 416.17 c 0,188.15 66.62,249.73 174.94,249.73 109.98,0 174.92,-61.58 174.92,-249.73 v -49.92 h 199.91 v 49.92 c 0,289.68 -141.61,432.89 -374.83,432.89" /><path
         id="path40"
         style="fill:#ffffff;fill-opacity:1;fill-rule:nonzero;stroke:none"
         d="m 2166.19,2906.94 h 199.94 v 815.32 h -199.94 v -815.32" /><path
         id="path42"
         style="fill:#ffffff;fill-opacity:1;fill-rule:nonzero;stroke:none"
         d="m 1163.82,4340.52 c -158.49,-25.92 -261.457,57.43 -284.527,198.38 -21.535,131.32 48.055,251.76 206.537,277.68 158.51,25.9 260.47,-57.56 283.24,-196.6 21.54,-131.31 -46.75,-253.51 -205.25,-279.46 z m -487.586,173.09 c -39.625,-6.45 -64.101,-8.52 -92.929,-8.23 l 28.011,-170.88 c 2.688,-16.45 7.168,-19.68 20.075,-19.57 l 74.211,1.23 6.175,-37.67 -313.121,-51.16 -5.711,34.75 38.711,18.23 c 22.074,10.54 25.129,10.04 22.922,23.55 l -76.723,468.35 c -2.191,13.51 -5.917,11.93 -28.109,14.23 l -43.453,4.81 -5.707,34.74 309.242,50.6 c 106.309,17.37 229.738,-3.08 249.977,-126.72 18.207,-111.06 -38.614,-212.52 -183.571,-236.26 z m 838.326,373.12 28.99,4.73 16.81,-102.37 c 7.03,47.75 44.09,112.31 88.54,119.59 21.27,3.49 51.68,-0.46 60.54,-54.57 7.11,-43.44 -21.69,-91.77 -21.69,-91.77 -24.73,23.71 -48.37,28.78 -79.3,23.71 -20.29,-3.32 -37.88,-11.18 -43.85,-23.03 l 43.65,-266.49 c 2.23,-13.5 2.2,-19.5 31.33,-21.67 l 50.37,-4.64 5.07,-30.92 -275.43,-45.06 -5.05,30.92 16.44,8.63 c 23.56,13.8 29.02,16.62 26.95,29.23 l -47.44,289.65 c -3.96,24.17 -16.32,27.08 -39.82,37.15 l -15.76,5.33 -4.73,28.94 z m 278,56.36 c 20.22,22.15 40.98,83.02 50.06,106.38 l 60.91,9.92 21.19,-129.41 106.3,17.4 7.43,-45.41 -106.3,-17.36 40,-244.3 c 9.99,-60.86 31.48,-89.06 79.79,-81.13 19.33,3.15 42.23,14.84 56.45,30.98 l 11.53,-9.98 c -20.08,-46.9 -57.24,-92.65 -132.63,-104.96 -99.52,-16.3 -148.79,36.11 -160.82,109.5 l -45.07,275.23 -44.46,-7.26 -7.58,46.36 c 16.59,7.67 41.93,28.64 63.2,44.04 z m 416.4,281.27 29,4.75 c -0.2,-16.91 6.98,-91.12 16.47,-149.04 l 77.65,-474.11 c 2.07,-12.57 8.21,-13.55 33.92,-19.29 l 18.37,-2.91 5.08,-30.9 -247.42,-40.48 -5.08,30.9 16.45,8.65 c 25.32,15.08 29.03,16.61 26.96,29.2 l -83.84,511.78 c -2.67,16.42 -8.11,25.47 -30.66,29.69 l -30.07,7.97 -4.75,28.98 z m 219.88,-239.7 27.9,23.38 c 24.37,20.87 66.29,43.58 112.69,51.17 88.91,14.54 179.13,-9.36 195.76,-110.79 l 33.84,-206.67 c 6.02,-36.67 10.48,-51.8 18.62,-71.22 16.59,-4.27 41.25,-3.24 55.72,-0.87 l 3.64,-22.18 c -21.62,-19.41 -88.51,-41.26 -106.86,-44.25 -59.92,-9.8 -88.69,14.23 -111.6,51.18 -13.93,-30.09 -44.95,-76.78 -107.81,-87.02 -83.1,-13.61 -138.06,19.01 -150.87,97.21 -14.38,87.9 76.88,136.53 148.6,165.11 l 75.28,31.16 -8.54,52.13 c -13.61,83.01 -58.31,95.61 -104.72,88.01 -16.42,-2.68 -33.52,-13.43 -44.01,-22.06 l 8.31,-14.53 c 9.48,-15.3 20.21,-32.42 22.73,-47.82 5.86,-35.71 -10.16,-65.14 -51.7,-71.94 -36.73,-6.02 -57.61,18.34 -62.82,50.22 -5.06,30.89 22.41,69.1 45.84,89.78 z m 597.12,149.21 29.02,4.75 15.64,-95.61 c 18.84,54.63 54.9,107.13 133.15,119.9 97.63,15.99 152.97,-49.3 167.85,-140.08 L 3411,4782.4 c 2.07,-12.6 6.25,-13.86 33.94,-19.27 l 18.35,-2.93 5.03,-30.92 -243.54,-39.79 -5.04,30.86 16.44,8.64 c 26.28,15.23 29.02,16.67 26.95,29.24 l -37.47,228.83 c -7.62,46.37 -24.36,100.12 -82.33,90.67 -35.76,-5.86 -58.88,-40.4 -67.5,-66.58 l 45.26,-276.14 c 2.06,-12.6 7.2,-13.71 33.89,-19.3 l 18.35,-2.93 5.08,-30.9 -247.42,-40.47 -5.06,30.93 16.45,8.62 c 23.53,13.77 29.01,16.64 26.97,29.23 l -47.46,289.65 c -3.96,24.17 -16.33,27.11 -39.81,37.12 l -15.77,5.34 -4.74,28.99 z m 631.87,103.31 c 45.42,7.45 75.79,-8.4 93.46,-25.37 l -22.61,138.09 c -5.71,34.78 -12.01,36.74 -49.62,42.49 l -30.56,4.91 -4.29,26.06 194.34,67.46 29,4.76 c 1.33,-38.46 8.72,-95.74 16.02,-140.14 l 77.5,-473.16 c 2.01,-12.58 4.31,-14.16 30.02,-19.9 l 33.01,-7.48 4.43,-27.05 -204.96,-57.29 -13.43,82.06 c -6.39,-33.76 -42.45,-86.25 -106.22,-96.71 -114.05,-18.65 -202.55,49.2 -227.4,200.81 -22.91,140.03 60.5,260.69 181.31,280.46 z M 1610.25,4189.91 4332.4,4635.08 4148.28,5759.02 0,5080.64 184.105,3956.7 1310.97,4140.97 c -102.88,-66.27 -161.11,-191.33 -161.11,-376.7 V 3348.1 c 0,-289.69 141.67,-432.86 374.95,-432.86 233.19,0 374.88,143.17 374.88,432.86 v 66.59 h -199.94 v -66.59 c 0,-188.13 -66.64,-249.72 -174.94,-249.72 -109.99,0 -174.94,61.59 -174.94,249.72 v 416.17 c 0,188.15 66.64,249.73 174.94,249.73 109.93,0 174.94,-61.58 174.94,-249.73 v -49.92 h 199.94 v 49.92 c 0,252.35 -107.59,393.44 -289.44,425.64" /><path
         id="path44"
         style="fill:#ffffff;fill-opacity:1;fill-rule:nonzero;stroke:none"
         d="m 3587.4,1497.56 h 199.94 v 2224.7 H 3587.4 v -2224.7" /><path
         id="path46"
         style="fill:#ffffff;fill-opacity:1;fill-rule:nonzero;stroke:none"
         d="M 2776.28,4155.53 H 2574.7 l 258.19,-1248.59 h 299.91 l 258.28,1248.59 H 3189.45 L 2982.86,3088.39 2776.28,4155.53" /><path
         id="path48"
         style="fill:#ffffff;fill-opacity:1;fill-rule:nonzero;stroke:none"
         d="m 2266.14,4155.53 c -73.7,0 -133.47,-59.7 -133.47,-133.4 0,-73.68 59.77,-133.4 133.47,-133.4 73.73,0 133.54,59.72 133.54,133.4 0,73.7 -59.81,133.4 -133.54,133.4" /></g></g></svg>