<?xml version="1.0" encoding="UTF-8" standalone="no"?>
<svg
   xmlns:dc="http://purl.org/dc/elements/1.1/"
   xmlns:cc="http://creativecommons.org/ns#"
   xmlns:rdf="http://www.w3.org/1999/02/22-rdf-syntax-ns#"
   xmlns:svg="http://www.w3.org/2000/svg"
   xmlns="http://www.w3.org/2000/svg"
   viewBox="0 0 681.84003 218.2"
   height="218.2"
   width="681.84003"
   xml:space="preserve"
   id="svg2"
   version="1.1"><metadata
     id="metadata8"><rdf:RDF><cc:Work
         rdf:about=""><dc:format>image/svg+xml</dc:format><dc:type
           rdf:resource="http://purl.org/dc/dcmitype/StillImage" /></cc:Work></rdf:RDF></metadata><defs
     id="defs6" /><g
     transform="matrix(1.3333333,0,0,-1.3333333,0,218.2)"
     id="g10"><g
       transform="scale(0.1)"
       id="g12"><path
         id="path14"
         style="fill:#231f20;fill-opacity:1;fill-rule:nonzero;stroke:none"
         d="m 2687.79,990.59 h 56.5 c 5.35,0 9.69,4.328 9.69,9.68 v 168.6 h 116.21 c 5.35,0 9.67,4.33 9.67,9.68 v 53.11 c 0,5.35 -4.32,9.68 -9.67,9.68 h -116.21 v 70.62 h 120.81 c 5.34,0 9.68,4.33 9.68,9.68 v 53.13 c 0,5.34 -4.34,9.67 -9.68,9.67 h -187 c -5.35,0 -9.68,-4.33 -9.68,-9.67 v -374.5 c 0,-5.352 4.33,-9.68 9.68,-9.68" /><path
         id="path16"
         style="fill:#231f20;fill-opacity:1;fill-rule:nonzero;stroke:none"
         d="m 3082.49,1212.48 h -8.26 v 99.48 h 10.44 c 61.34,0 68.44,-27.27 68.44,-47.8 0,-22.19 -7.33,-51.68 -70.62,-51.68 z m 168.58,-221.89 c 5.35,0 9.7,4.328 9.7,9.68 0,2.85 -1.24,5.41 -3.19,7.18 l -106.65,146.79 c 20.74,7 38.08,19.15 51.68,36.22 16.52,20.75 24.9,45.79 24.9,74.43 0,36.76 -13.38,66.82 -39.8,89.38 -24.01,20.31 -61.13,30.17 -113.46,30.17 h -66.23 c -5.34,0 -9.67,-4.33 -9.67,-9.67 v -374.5 c 0,-5.352 4.33,-9.68 9.67,-9.68 h 56.52 c 5.36,0 9.69,4.328 9.69,9.68 v 137.11 l 99.53,-142.642 c 1.8,-2.605 4.77,-4.148 7.93,-4.148 h 69.13 c 0.09,-0.012 0.19,-0.012 0.25,0" /><path
         id="path18"
         style="fill:#231f20;fill-opacity:1;fill-rule:nonzero;stroke:none"
         d="m 3389.68,990.59 h 56.51 c 5.35,0 9.66,4.328 9.66,9.68 v 374.5 c 0,5.34 -4.31,9.67 -9.66,9.67 h -56.51 c -5.35,0 -9.69,-4.33 -9.69,-9.67 v -374.5 c 0,-5.352 4.34,-9.68 9.69,-9.68" /><path
         id="path20"
         style="fill:#231f20;fill-opacity:1;fill-rule:nonzero;stroke:none"
         d="m 3610.08,990.59 h 206.65 c 5.35,0 9.69,4.328 9.69,9.68 v 53.12 c 0,5.36 -4.34,9.68 -9.69,9.68 h -140.47 v 105.8 h 136.12 c 5.34,0 9.66,4.33 9.66,9.68 v 53.11 c 0,5.35 -4.32,9.68 -9.66,9.68 h -136.12 v 70.62 h 140.47 c 5.35,0 9.69,4.33 9.69,9.68 v 53.13 c 0,5.34 -4.34,9.67 -9.69,9.67 h -206.65 c -5.34,0 -9.68,-4.33 -9.68,-9.67 v -374.5 c 0,-5.352 4.34,-9.68 9.68,-9.68" /><path
         id="path22"
         style="fill:#231f20;fill-opacity:1;fill-rule:nonzero;stroke:none"
         d="m 3978.39,990.59 h 56.53 c 5.35,0 9.67,4.328 9.67,9.68 v 212.63 l 256.45,-216.658 c 1.86,-1.933 4.4,-2.976 6.98,-2.976 1.23,0 2.44,0.222 3.61,0.695 3.68,1.465 6.08,5.027 6.08,8.979 v 371.83 c 0,5.34 -4.34,9.67 -9.69,9.67 h -56.5 c -5.35,0 -9.67,-4.33 -9.67,-9.67 v -210.65 l -256.45,217.33 c -2.75,2.88 -6.97,3.76 -10.61,2.29 -3.66,-1.47 -6.07,-5.03 -6.07,-8.99 v -374.48 c 0,-5.352 4.33,-9.68 9.67,-9.68" /><path
         id="path24"
         style="fill:#231f20;fill-opacity:1;fill-rule:nonzero;stroke:none"
         d="m 4531.44,1313.21 h 15.8 c 45.45,0 80.04,-10.64 102.79,-31.6 25.67,-23.86 38.15,-54.22 38.15,-92.84 0,-38.25 -12.62,-68.38 -38.54,-92.04 -12.52,-11.32 -26.73,-19.71 -42.03,-24.86 -15.8,-5.01 -36.11,-7.55 -60.37,-7.55 h -15.8 z m -66.19,-321.37 h 77.61 c 39.43,0 69.22,3.562 90.94,10.87 23.36,7.32 45.92,20.48 67.06,39.09 42.26,37.34 63.67,86.78 63.67,146.97 0,59.96 -20.55,109.13 -61.12,146.11 -20.05,18.36 -42.75,31.55 -67.21,39.13 -22.71,7.76 -53.8,11.68 -92.38,11.68 h -78.57 c -5.35,0 -9.69,-4.33 -9.69,-9.67 v -374.5 c 0,-5.352 4.34,-9.68 9.69,-9.68" /><path
         id="path26"
         style="fill:#231f20;fill-opacity:1;fill-rule:nonzero;stroke:none"
         d="m 4983.53,983.805 c 36.74,0 68.01,12.363 92.89,36.735 24.78,24.27 37.34,55.34 37.34,92.36 0,27.83 -7.79,51.78 -23.2,71.2 -15.06,18.95 -38.83,35.1 -70.61,47.96 l -37.34,15.29 c -34.75,14.28 -34.75,30.03 -34.75,35.21 0,10.37 3.95,18.74 12.15,25.67 8.62,7.41 19.34,11.02 32.76,11.02 10.83,0 19.6,-2.11 26.4,-6.44 4.3,-2.51 11.43,-8.99 20.98,-25.58 1.29,-2.25 3.42,-3.88 5.92,-4.53 2.5,-0.69 5.17,-0.29 7.4,1.03 l 45.86,27.16 c 4.55,2.71 6.09,8.59 3.42,13.18 -26,44.88 -62.83,67.65 -109.51,67.65 -34.31,0 -63.48,-10.45 -86.67,-31.01 -23.61,-20.73 -35.56,-46.92 -35.56,-77.81 0,-45.74 27.87,-80.71 82.85,-103.93 l 36.04,-15 c 8.8,-3.78 16.47,-7.79 22.79,-11.93 5.94,-3.88 10.82,-8.07 14.51,-12.44 3.46,-4.1 6.04,-8.67 7.66,-13.53 1.7,-5.07 2.56,-10.77 2.56,-16.94 0,-15.59 -4.81,-28.05 -14.67,-38.05 -9.85,-9.95 -21.96,-14.8 -37.03,-14.8 -19.18,0 -33.27,6.61 -43.27,20.47 -3.67,4.79 -8.69,15.77 -11.64,40.83 -0.31,2.72 -1.77,5.17 -4,6.76 -2.23,1.57 -5.04,2.14 -7.68,1.57 l -57.24,-12.61 c -4.98,-1.1 -8.24,-5.85 -7.5,-10.87 5.49,-37 19.63,-66.29 42.1,-87.11 22.92,-20.914 52.21,-31.515 87.04,-31.515" /><path
         id="path28"
         style="fill:#231f20;fill-opacity:1;fill-rule:nonzero;stroke:none"
         d="m 2852,692.453 c -14.16,-14.246 -31.1,-21.16 -51.77,-21.16 -18.94,0 -35.23,6.816 -49.82,20.898 -14.54,13.926 -21.62,31.329 -21.62,53.172 0,20.766 6.84,37.68 20.96,51.789 14.06,14.215 30.84,21.137 51.33,21.137 20.54,0 37.28,-6.902 51.19,-21.137 14,-14.16 20.81,-31.3 20.81,-52.363 0,-20.801 -6.91,-37.93 -21.08,-52.336 z m 37.31,139.93 c -24.28,24.277 -53.82,36.582 -87.8,36.582 -34.33,0 -64.13,-12.188 -88.59,-36.223 -24.63,-24.109 -37.1,-53.383 -37.1,-87.015 0,-38.133 13.71,-69.454 40.8,-93.145 24.4,-21.211 52.39,-31.973 83.17,-31.973 34.71,0 64.74,12.129 89.29,36.075 24.54,23.918 36.98,53.437 36.98,87.754 0,34.082 -12.36,63.667 -36.75,87.945" /><path
         id="path30"
         style="fill:#231f20;fill-opacity:1;fill-rule:nonzero;stroke:none"
         d="m 2989.95,624.609 h 33.33 c 5.34,0 9.67,4.34 9.67,9.68 v 95.461 h 64.57 c 5.34,0 9.67,4.336 9.67,9.688 v 31.308 c 0,5.352 -4.33,9.688 -9.67,9.688 h -64.57 v 33.707 h 67.29 c 5.35,0 9.69,4.316 9.69,9.668 v 31.328 c 0,5.351 -4.34,9.687 -9.69,9.687 h -110.29 c -5.35,0 -9.67,-4.336 -9.67,-9.687 V 634.289 c 0,-5.34 4.32,-9.68 9.67,-9.68" /><path
         id="path32"
         style="fill:#231f20;fill-opacity:1;fill-rule:nonzero;stroke:none"
         d="m 3298.64,656.449 c 24.09,-23.789 53.57,-35.84 87.61,-35.84 22.59,0 44.41,5.879 64.86,17.5 3.03,1.719 4.89,4.922 4.89,8.407 v 40.285 c 0,3.75 -2.17,7.187 -5.59,8.769 -3.43,1.602 -7.46,1.055 -10.33,-1.386 -5.11,-4.317 -10.02,-8.039 -14.61,-11.043 -4.35,-2.883 -8.61,-5.207 -12.97,-7.036 -6.88,-3.191 -15.56,-4.812 -25.82,-4.812 -20.17,0 -36.72,6.875 -50.59,20.996 -13.92,14.16 -20.69,31.121 -20.69,51.856 0,21.054 6.79,38.32 20.79,52.832 13.76,14.429 30.25,21.461 50.36,21.461 18.16,0 36.19,-7.383 53.57,-21.93 2.87,-2.403 6.91,-2.918 10.3,-1.336 3.41,1.59 5.58,5.008 5.58,8.766 v 39.402 c 0,3.457 -1.82,6.64 -4.82,8.379 -19.89,11.543 -40.87,17.39 -62.35,17.39 -39.14,0 -71.5,-14.765 -96.23,-43.906 -20.01,-23.715 -30.15,-51.129 -30.15,-81.488 0,-33.899 12.15,-63.242 36.19,-87.266" /><path
         id="path34"
         style="fill:#231f20;fill-opacity:1;fill-rule:nonzero;stroke:none"
         d="m 3671.82,692.453 c -14.16,-14.246 -31.1,-21.16 -51.78,-21.16 -18.92,0 -35.22,6.816 -49.81,20.898 -14.54,13.926 -21.61,31.329 -21.61,53.172 0,20.766 6.83,37.68 20.95,51.789 14.06,14.215 30.83,21.137 51.32,21.137 20.55,0 37.3,-6.902 51.2,-21.137 14.01,-14.16 20.8,-31.3 20.8,-52.363 0,-20.801 -6.91,-37.93 -21.07,-52.336 z m 37.3,139.93 c -24.27,24.277 -53.81,36.582 -87.79,36.582 -34.33,0 -64.14,-12.188 -88.59,-36.223 -24.63,-24.109 -37.11,-53.383 -37.11,-87.015 0,-38.133 13.73,-69.454 40.82,-93.145 24.39,-21.211 52.37,-31.973 83.16,-31.973 34.7,0 64.74,12.129 89.28,36.075 24.54,23.918 36.98,53.449 36.98,87.754 0,34.082 -12.36,63.667 -36.75,87.945" /><path
         id="path36"
         style="fill:#231f20;fill-opacity:1;fill-rule:nonzero;stroke:none"
         d="m 3970.83,864.824 c -5.35,0 -9.67,-4.336 -9.67,-9.679 v -129.34 l -144.39,138.304 c -2.74,2.883 -6.96,3.77 -10.61,2.297 -3.68,-1.476 -6.07,-5.031 -6.07,-8.984 V 634.289 c 0,-5.34 4.33,-9.68 9.68,-9.68 h 33.32 c 5.35,0 9.68,4.34 9.68,9.68 v 130.539 l 144.4,-137.937 c 1.88,-1.95 4.42,-2.981 6.99,-2.981 1.22,0 2.45,0.211 3.62,0.692 3.67,1.468 6.07,5.027 6.07,8.98 v 221.563 c 0,5.343 -4.33,9.679 -9.69,9.679 h -33.33" /><path
         id="path38"
         style="fill:#231f20;fill-opacity:1;fill-rule:nonzero;stroke:none"
         d="m 4275.67,658.363 c 9.89,11.239 17.06,23.555 21.31,36.739 4.17,13.613 6.29,29.375 6.29,46.894 v 7.305 c 0,5.351 -4.34,9.668 -9.69,9.668 h -91.24 c -5.35,0 -9.68,-4.317 -9.68,-9.668 v -31.336 c 0,-5.344 4.33,-9.68 9.68,-9.68 h 43.17 c -2.89,-8.535 -8.26,-16.074 -16.23,-22.871 -11.37,-9.59 -23.8,-14.269 -37.97,-14.269 -16.95,0 -32.38,6.449 -47.15,19.679 -15.66,14.129 -23.28,31.668 -23.28,53.614 0,21.367 6.85,38.593 20.98,52.714 14.06,14.321 31.05,21.286 51.89,21.286 23.03,0 42.15,-10.567 58.49,-32.321 1.65,-2.226 4.19,-3.625 6.95,-3.847 2.77,-0.274 5.48,0.742 7.47,2.664 l 23.75,22.73 c 3.75,3.586 4.01,9.484 0.6,13.371 -14.59,16.68 -29.81,28.965 -45.38,36.641 -16.19,7.578 -33.84,11.433 -52.44,11.433 -34.66,0 -64.49,-12.265 -88.66,-36.433 -24.2,-24.082 -36.46,-53.824 -36.46,-88.395 0,-33.847 12.05,-63.281 35.83,-87.461 23.8,-24.129 52.82,-36.351 86.27,-36.351 34.4,0 63.16,12.742 85.5,37.894" /><path
         id="path40"
         style="fill:#231f20;fill-opacity:1;fill-rule:nonzero;stroke:none"
         d="m 4409.58,814.141 h 2.2 c 36.39,0 36.39,-16.969 36.39,-24.215 0,-12.363 -4.28,-26.516 -37.66,-26.516 h -0.93 z m -42.99,-189.532 h 33.32 c 5.35,0 9.67,4.34 9.67,9.68 v 68.234 l 51.49,-73.773 c 1.8,-2.59 4.77,-4.141 7.94,-4.141 h 40.76 c 0.1,-0.007 0.18,-0.007 0.24,0 5.35,0 9.69,4.34 9.69,9.68 0,2.844 -1.23,5.41 -3.18,7.18 l -59.39,81.758 c 10.76,4.531 19.92,11.484 27.33,20.761 10.31,12.957 15.52,28.555 15.52,46.367 0,22.887 -8.36,41.637 -24.87,55.739 -14.91,12.597 -37.64,18.73 -69.48,18.73 h -39.04 c -5.36,0 -9.68,-4.336 -9.68,-9.679 V 634.289 c 0,-5.34 4.32,-9.68 9.68,-9.68" /><path
         id="path42"
         style="fill:#231f20;fill-opacity:1;fill-rule:nonzero;stroke:none"
         d="m 4694.46,864.824 h -121.88 c -5.35,0 -9.69,-4.336 -9.69,-9.679 V 634.289 c 0,-5.34 4.34,-9.68 9.69,-9.68 h 121.88 c 5.34,0 9.66,4.34 9.66,9.68 v 31.34 c 0,5.344 -4.32,9.668 -9.66,9.668 h -78.89 v 54.453 h 76.29 c 5.35,0 9.69,4.336 9.69,9.688 v 31.308 c 0,5.352 -4.34,9.688 -9.69,9.688 h -76.29 v 33.707 h 78.89 c 5.34,0 9.66,4.316 9.66,9.668 v 31.336 c 0,5.343 -4.32,9.679 -9.66,9.679" /><path
         id="path44"
         style="fill:#231f20;fill-opacity:1;fill-rule:nonzero;stroke:none"
         d="m 4847.8,774.652 -22.02,9.024 c -11.97,4.914 -18.04,10.676 -18.04,17.109 0,4.922 1.83,8.746 5.78,12.106 4.34,3.73 9.82,5.547 16.74,5.547 5.61,0 10.07,-1.047 13.57,-3.274 1.74,-1.004 5.44,-4.109 10.94,-13.637 1.29,-2.246 3.44,-3.855 5.94,-4.531 2.5,-0.644 5.15,-0.281 7.38,1.047 l 27.03,16.02 c 4.56,2.714 6.09,8.574 3.44,13.183 -16.1,27.793 -38.98,41.863 -68.03,41.863 -21.23,0 -39.32,-6.492 -53.74,-19.277 -14.79,-13.016 -22.29,-29.453 -22.29,-48.852 0,-28.73 17.22,-50.585 51.28,-64.98 l 21.22,-8.809 c 5.01,-2.168 9.32,-4.425 12.82,-6.718 3.19,-2.09 5.79,-4.297 7.7,-6.563 1.74,-2.07 2.98,-4.258 3.8,-6.699 0.86,-2.559 1.3,-5.488 1.3,-8.731 0,-8.085 -2.46,-14.519 -7.52,-19.628 -5.01,-5.098 -11.23,-7.559 -19,-7.559 -10.08,0 -17.11,3.262 -22.36,10.527 -1.53,1.993 -4.36,7.508 -6.06,22.11 -0.33,2.715 -1.78,5.175 -4,6.777 -2.23,1.563 -5.03,2.129 -7.7,1.563 l -33.75,-7.442 c -4.98,-1.094 -8.25,-5.84 -7.5,-10.867 3.36,-22.746 12.13,-40.805 26.06,-53.723 14.29,-13.027 32.46,-19.629 54.03,-19.629 22.73,0 42.1,7.672 57.57,22.793 15.39,15.11 23.19,34.383 23.19,57.305 0,17.363 -4.89,32.305 -14.54,44.465 -9.3,11.726 -23.86,21.648 -43.24,29.48" /><path
         id="path46"
         style="fill:#231f20;fill-opacity:1;fill-rule:nonzero;stroke:none"
         d="m 5028.6,671.293 c -10.1,0 -17.13,3.262 -22.37,10.527 -1.53,1.993 -4.34,7.481 -6.07,22.11 -0.32,2.734 -1.78,5.175 -4,6.777 -2.23,1.563 -5.02,2.129 -7.69,1.563 l -33.76,-7.442 c -4.98,-1.094 -8.24,-5.84 -7.5,-10.867 3.36,-22.746 12.11,-40.793 26.07,-53.723 14.28,-13.027 32.45,-19.629 54.03,-19.629 22.73,0 42.09,7.672 57.56,22.793 15.39,15.098 23.2,34.375 23.2,57.305 0,17.336 -4.88,32.285 -14.53,44.473 -9.32,11.718 -23.89,21.64 -43.24,29.472 l -22.03,9.024 c -11.96,4.914 -18.03,10.676 -18.03,17.109 0,4.922 1.82,8.746 5.8,12.125 4.32,3.711 9.78,5.528 16.72,5.528 5.6,0 10.06,-1.036 13.55,-3.274 1.74,-1.004 5.47,-4.109 10.94,-13.617 1.29,-2.246 3.42,-3.875 5.92,-4.531 2.5,-0.664 5.17,-0.301 7.4,1.027 l 27.05,16.02 c 4.55,2.714 6.09,8.574 3.42,13.183 -16.08,27.793 -38.97,41.863 -68.01,41.863 -21.23,0 -39.32,-6.492 -53.74,-19.277 -14.8,-13.016 -22.31,-29.453 -22.31,-48.852 0,-28.73 17.23,-50.578 51.3,-64.98 l 21.22,-8.809 c 5,-2.168 9.31,-4.425 12.81,-6.718 3.2,-2.09 5.78,-4.297 7.69,-6.563 1.76,-2.09 3.01,-4.277 3.81,-6.699 0.86,-2.559 1.31,-5.488 1.31,-8.731 0,-8.085 -2.46,-14.519 -7.52,-19.628 -5.02,-5.098 -11.23,-7.559 -19,-7.559" /><path
         id="path48"
         style="fill:#231f20;fill-opacity:1;fill-rule:nonzero;stroke:none"
         d="m 2775.27,403.32 -22.97,9.41 c -12.67,5.2 -19.08,11.329 -19.08,18.239 0,5.281 1.95,9.383 6.17,12.953 4.61,3.969 10.41,5.887 17.73,5.887 5.94,0 10.67,-1.09 14.38,-3.45 1.83,-1.089 5.8,-4.39 11.56,-14.398 1.3,-2.242 3.43,-3.871 5.93,-4.52 2.55,-0.64 5.17,-0.269 7.4,1.028 l 28.21,16.722 c 4.56,2.707 6.1,8.598 3.43,13.188 -16.71,28.84 -40.46,43.473 -70.61,43.473 -22.04,0 -40.82,-6.723 -55.81,-20.012 -15.34,-13.488 -23.12,-30.551 -23.12,-50.668 0,-29.793 17.91,-52.461 53.26,-67.391 l 22.13,-9.211 c 5.23,-2.269 9.76,-4.629 13.46,-7.031 3.38,-2.23 6.1,-4.551 8.11,-6.957 1.87,-2.203 3.2,-4.531 4.06,-7.113 0.91,-2.719 1.36,-5.828 1.36,-9.231 0,-8.578 -2.6,-15.367 -7.95,-20.797 -5.33,-5.39 -11.91,-8.011 -20.13,-8.011 -10.67,0 -18.13,3.468 -23.68,11.152 -1.62,2.109 -4.6,7.938 -6.4,23.289 -0.33,2.711 -1.78,5.168 -4.01,6.75 -2.22,1.578 -5.03,2.129 -7.69,1.57 l -35.23,-7.761 c -4.97,-1.098 -8.25,-5.84 -7.5,-10.871 3.51,-23.629 12.61,-42.387 27.08,-55.809 14.82,-13.52 33.69,-20.359 56.09,-20.359 23.62,0 43.74,7.961 59.76,23.66 15.99,15.679 24.1,35.687 24.1,59.508 0,17.992 -5.08,33.519 -15.09,46.121 -9.66,12.16 -24.8,22.492 -44.95,30.64" /><path
         id="path50"
         style="fill:#231f20;fill-opacity:1;fill-rule:nonzero;stroke:none"
         d="m 3059.72,329.551 -25.98,25.84 c -1.81,1.82 -4.27,2.808 -6.83,2.808 h -44.92 c -3.95,0 -7.49,-2.379 -8.98,-6.039 -1.47,-3.648 -0.59,-7.84 2.23,-10.578 l 43.89,-42.523 c -7.38,-2.411 -15.32,-3.629 -23.72,-3.629 -19.69,0 -36.8,7.129 -52.26,21.781 -14.66,14.027 -21.79,31.687 -21.79,53.988 0,23.063 6.97,41.492 21.35,56.422 14.16,14.82 31.79,22.051 53.9,22.051 21.88,0 39.63,-7.262 54.29,-22.172 14.7,-14.961 21.86,-33.078 21.86,-55.398 0,-16.551 -4.28,-30.563 -13.04,-42.551 z m 38.17,-38.871 c 19.46,23.289 29.29,49.871 29.29,79.101 0,40.91 -15.19,74.571 -45.19,100.071 -24.89,21.136 -53.45,31.859 -84.93,31.859 -34.65,0 -65.11,-12.242 -90.55,-36.402 -26.27,-24.977 -39.58,-56.559 -39.58,-93.887 0,-38.141 14.1,-69.961 41.97,-94.613 25.38,-22.18 54.9,-33.418 87.71,-33.418 22.61,0 43.64,5.359 62.58,15.949 l 12.74,-13.031 c 1.81,-1.868 4.31,-2.918 6.92,-2.918 h 43.74 c 0.1,-0.012 0.2,-0.012 0.25,0 5.34,0 9.68,4.32 9.68,9.668 0,3.382 -1.74,6.351 -4.36,8.101 l -30.27,29.52" /><path
         id="path52"
         style="fill:#231f20;fill-opacity:1;fill-rule:nonzero;stroke:none"
         d="m 3353.31,497.379 h -34.77 c -5.34,0 -9.68,-4.328 -9.68,-9.688 V 348.98 c 0,-22.281 -4.26,-32.789 -7.85,-37.691 -7.78,-10.68 -18.6,-15.859 -33.07,-15.859 -14.37,0 -25.13,5.179 -32.85,15.761 -5.17,7.297 -7.93,20.391 -7.93,37.789 v 138.711 c 0,5.36 -4.31,9.688 -9.67,9.688 h -34.78 c -5.35,0 -9.67,-4.328 -9.67,-9.688 V 339.332 c 0,-26.75 8.54,-49.191 25.39,-66.73 18.73,-19.383 42.12,-29.211 69.51,-29.211 27.38,0 50.8,9.808 69.67,29.238 16.84,17.512 25.39,39.953 25.39,66.703 v 148.359 c 0,5.36 -4.33,9.688 -9.69,9.688" /><path
         id="path54"
         style="fill:#231f20;fill-opacity:1;fill-rule:nonzero;stroke:none"
         d="m 3497.83,355.582 20.54,44.949 19.61,-44.949 z m 30.19,150.566 c -1.56,3.461 -4.98,5.684 -8.77,5.704 -0.02,0 -0.04,0 -0.07,0 -3.76,0 -7.18,-2.161 -8.78,-5.582 L 3396.36,261.34 c -1.39,-3.02 -1.15,-6.52 0.63,-9.309 1.77,-2.793 4.85,-4.461 8.16,-4.461 h 37.46 c 3.79,0 7.23,2.192 8.8,5.629 l 23.08,50.332 h 86.09 l 21.66,-50.133 c 1.54,-3.539 5.04,-5.828 8.89,-5.828 h 38.06 c 0.08,-0.011 0.19,-0.011 0.25,0 5.35,0 9.69,4.321 9.69,9.668 0,2.172 -0.72,4.184 -1.93,5.801 l -109.18,243.109" /><path
         id="path56"
         style="fill:#231f20;fill-opacity:1;fill-rule:nonzero;stroke:none"
         d="m 3739.62,391.551 h -1.36 v 53.781 h 2.7 c 38.39,0 38.39,-18.012 38.39,-25.691 0,-13.082 -4.51,-28.09 -39.73,-28.09 z m 47.99,-41.34 c 11.41,4.711 21.06,11.988 28.84,21.75 10.71,13.449 16.13,29.629 16.13,48.129 0,23.769 -8.66,43.211 -25.81,57.851 -15.49,13.079 -39.1,19.438 -72.23,19.438 h -40.75 c -5.34,0 -9.68,-4.328 -9.68,-9.688 V 257.238 c 0,-5.347 4.34,-9.668 9.68,-9.668 h 34.78 c 5.35,0 9.69,4.321 9.69,9.668 v 72.524 l 54.47,-78.051 c 1.8,-2.609 4.78,-4.141 7.94,-4.141 h 42.54 c 0.08,-0.011 0.18,-0.011 0.24,0 5.35,0 9.69,4.321 9.69,9.668 0,2.864 -1.23,5.41 -3.19,7.172 l -62.34,85.801" /><path
         id="path58"
         style="fill:#231f20;fill-opacity:1;fill-rule:nonzero;stroke:none"
         d="m 4037.94,497.379 h -127.16 c -5.36,0 -9.69,-4.328 -9.69,-9.688 V 257.238 c 0,-5.347 4.33,-9.668 9.69,-9.668 h 127.16 c 5.35,0 9.67,4.321 9.67,9.668 v 32.692 c 0,5.34 -4.32,9.679 -9.67,9.679 h -82.71 v 57.661 h 80.02 c 5.35,0 9.69,4.332 9.69,9.679 v 32.692 c 0,5.339 -4.34,9.668 -9.69,9.668 h -80.02 v 36.023 h 82.71 c 5.35,0 9.67,4.34 9.67,9.688 v 32.671 c 0,5.36 -4.32,9.688 -9.67,9.688" /><path
         id="path60"
         style="fill:#231f20;fill-opacity:1;fill-rule:nonzero;stroke:none"
         d="m 4312.1,392.75 h -3.3 v 53.191 h 1.82 c 39.73,0 39.73,-18.23 39.73,-26 0,-12.66 -4.36,-27.191 -38.25,-27.191 z m 37.93,100.262 c -10.78,2.937 -25.92,4.367 -46.29,4.367 h -39.39 c -5.35,0 -9.69,-4.328 -9.69,-9.688 V 257.238 c 0,-5.347 4.34,-9.668 9.69,-9.668 h 34.77 c 5.35,0 9.68,4.321 9.68,9.668 v 83.91 h 6.45 c 26.28,0 47.64,7.032 63.53,20.903 16.25,14.187 24.5,33.508 24.5,57.437 0,22.321 -7.66,41.114 -22.72,55.844 -8.73,8.629 -19.02,14.566 -30.53,17.68" /><path
         id="path62"
         style="fill:#231f20;fill-opacity:1;fill-rule:nonzero;stroke:none"
         d="m 4510.89,355.582 20.55,44.949 19.6,-44.949 z m 30.18,150.566 c -1.54,3.461 -4.96,5.684 -8.77,5.704 0,0 -0.03,0 -0.06,0 -3.75,0 -7.19,-2.161 -8.78,-5.582 L 4409.43,261.34 c -1.39,-3.02 -1.15,-6.52 0.62,-9.309 1.78,-2.793 4.85,-4.461 8.16,-4.461 h 37.47 c 3.78,0 7.22,2.192 8.79,5.629 l 23.08,50.332 h 86.1 l 21.66,-50.133 c 1.52,-3.539 5.02,-5.828 8.88,-5.828 h 38.06 c 0.1,-0.011 0.19,-0.011 0.24,0 5.36,0 9.69,4.321 9.69,9.668 0,2.172 -0.72,4.184 -1.92,5.801 l -109.19,243.109" /><path
         id="path64"
         style="fill:#231f20;fill-opacity:1;fill-rule:nonzero;stroke:none"
         d="m 4752.68,391.551 h -1.38 v 53.781 h 2.72 c 38.39,0 38.39,-18.012 38.39,-25.691 0,-13.082 -4.53,-28.09 -39.73,-28.09 z m 48,-41.34 c 11.38,4.711 21.04,11.988 28.83,21.75 10.71,13.449 16.13,29.629 16.13,48.129 0,23.769 -8.67,43.211 -25.8,57.851 -15.49,13.079 -39.11,19.438 -72.24,19.438 h -40.75 c -5.34,0 -9.67,-4.328 -9.67,-9.688 V 257.238 c 0,-5.347 4.33,-9.668 9.67,-9.668 h 34.78 c 5.36,0 9.67,4.321 9.67,9.668 v 72.524 l 54.49,-78.051 c 1.8,-2.609 4.77,-4.141 7.93,-4.141 h 42.54 c 0.1,-0.011 0.2,-0.011 0.26,0 5.35,0 9.68,4.321 9.68,9.668 0,2.864 -1.23,5.41 -3.18,7.172 l -62.34,85.801" /><path
         id="path66"
         style="fill:#231f20;fill-opacity:1;fill-rule:nonzero;stroke:none"
         d="m 5102.79,263.43 -99.14,119.34 97.95,98.089 c 2.77,2.77 3.59,6.93 2.09,10.539 -1.51,3.633 -5.02,5.981 -8.95,5.981 h -46.41 c -2.61,0 -5.11,-1.051 -6.93,-2.93 l -73.11,-74.91 v 68.152 c 0,5.36 -4.32,9.688 -9.66,9.688 h -34.79 c -5.35,0 -9.68,-4.328 -9.68,-9.688 V 257.238 c 0,-5.347 4.33,-9.668 9.68,-9.668 h 34.79 c 5.34,0 9.66,4.321 9.66,9.668 v 84.051 l 72.95,-90.129 c 1.84,-2.269 4.61,-3.59 7.54,-3.59 h 46.57 c 3.75,0 7.16,2.149 8.76,5.551 1.59,3.41 1.08,7.418 -1.32,10.309" /><path
         id="path68"
         style="fill:#428232;fill-opacity:1;fill-rule:nonzero;stroke:none"
         d="M 1212.26,1636.54 0,1091.03 V 545.52 l 1212.26,545.51 1212.25,-545.51 v 545.51 l -1212.25,545.51 v 0" /><path
         id="path70"
         style="fill:#345a2e;fill-opacity:1;fill-rule:nonzero;stroke:none"
         d="m 0,545.52 1212.26,545.51 v 545.51 L 0,1091.03 v -545.51 0" /><path
         id="path72"
         style="fill:#ffffff;fill-opacity:1;fill-rule:nonzero;stroke:none"
         d="m 570.516,1169.73 23.199,-124.42 0.64,0.28 19.059,143.46 63.559,28.63 25.093,-217.21 -48.613,-21.907 -11.441,159.427 -0.633,-0.29 -7.629,-59.8 -20.336,-117.361 -36.539,-16.457 -23.191,98.958 -7.95,47.34 v 4.23 l -0.632,-0.28 -6.993,-167.725 -50.839,-22.89 20.976,237.965 62.27,28.05 v 0" /><path
         id="path74"
         style="fill:#ffffff;fill-opacity:1;fill-rule:nonzero;stroke:none"
         d="m 834.066,1288.46 v -42.43 l -47.972,-21.62 v -49.7 l 42.258,19.03 v -42.43 l -42.258,-19.03 v -51.52 l 48.617,21.88 v -42.43 l -95.961,-43.22 v 228.53 l 95.316,42.94 v 0" /><path
         id="path76"
         style="fill:#ffffff;fill-opacity:1;fill-rule:nonzero;stroke:none"
         d="m 970.016,1349.69 v -42.43 l -47.981,-21.61 v -49.71 l 42.258,19.04 v -42.43 l -42.258,-19.04 v -51.53 l 48.617,21.91 v -42.43 l -95.961,-43.23 v 228.52 l 95.325,42.94 v 0" /><path
         id="path78"
         style="fill:#ffffff;fill-opacity:1;fill-rule:nonzero;stroke:none"
         d="m 1122.51,1418.39 v -42.43 l -37.49,-16.89 v -186.09 l -47.35,-21.33 v 186.09 l -37.18,-16.75 v 42.43 l 122.02,54.97 v 0" /><path
         id="path80"
         style="fill:#428232;fill-opacity:1;fill-rule:nonzero;stroke:none"
         d="M 1212.26,545.52 0,1091.03 V 545.52 L 1212.26,0 2424.51,545.52 v 545.51 L 1212.26,545.52 v 0" /><path
         id="path82"
         style="fill:#345a2e;fill-opacity:1;fill-rule:nonzero;stroke:none"
         d="m 1212.26,0 1212.25,545.52 v 545.51 L 1212.26,545.52 V 0 0" /><path
         id="path84"
         style="fill:#ffffff;fill-opacity:1;fill-rule:nonzero;stroke:none"
         d="m 1418.41,408.738 c -9.54,3.594 -21.29,4.961 -34.32,-0.906 -14.62,-6.594 -23.84,-19.223 -23.84,-33.16 0,-37.582 72.13,-7.223 72.13,-69.051 0,-40.601 -24.46,-82.242 -68.94,-102.269 -13.35,-6.012 -29.87,-9.512 -40.68,-6.813 v 43.031 c 11.13,-2.261 21.93,-2.25 35.91,4.051 15.25,6.879 27.33,22.008 27.33,37.18 0,17.57 -14.62,17.648 -27.97,20.738 -27.32,5.27 -44.16,14.652 -44.16,47.992 0,36.071 21.92,77.168 62.59,95.481 15.25,6.879 28.92,9.09 41.95,7.679 v -43.953 0" /><path
         id="path86"
         style="fill:#ffffff;fill-opacity:1;fill-rule:nonzero;stroke:none"
         d="m 1633.53,342.289 -24.79,-33.598 -18.43,10.797 c -12.71,-15.117 -27,-26.109 -43.84,-33.699 -42.27,-19.027 -84.21,-5.801 -84.21,79.973 0,85.769 41.94,136.789 84.21,155.828 42.25,19.039 84.19,5.801 84.19,-79.969 0,-26.98 -3.49,-59.461 -17.79,-88.633 l 20.66,-10.699 z m -57.83,30.621 c 3.81,14.75 4.44,28.68 4.44,45.961 0,20.301 -2.22,75.07 -33.67,60.891 -31.47,-14.172 -33.68,-70.934 -33.68,-91.231 0,-18.199 2.21,-75.082 33.68,-60.91 4.44,2 7.62,4.641 11.43,9.09 l -28.28,15.449 24.47,33.75 21.61,-13 v 0" /><path
         id="path88"
         style="fill:#ffffff;fill-opacity:1;fill-rule:nonzero;stroke:none"
         d="M 1715.48,594.09 V 446.18 c 0,-17.27 -2.22,-44.328 23.51,-32.739 23.2,10.45 23.2,27.118 23.52,44.239 v 157.59 l 47.34,21.328 v -166.7 c 0,-24.238 -2.86,-66.738 -71.17,-97.519 -44.17,-19.899 -70.54,-12.078 -70.54,30.66 V 572.77 l 47.34,21.32 v 0" /><path
         id="path90"
         style="fill:#ffffff;fill-opacity:1;fill-rule:nonzero;stroke:none"
         d="m 1941.16,695.746 57.5,-202.617 -50.52,-22.75 -8.9,34.48 -47.98,-21.621 -8.57,-42.347 -47.02,-21.18 55.59,253.566 49.9,22.469 z m -20.97,-102.797 -5.41,32.121 -0.64,-0.281 -5.08,-36.84 -10.17,-65.508 33.37,15.039 -12.07,55.469 v 0" /><path
         id="path92"
         style="fill:#ffffff;fill-opacity:1;fill-rule:nonzero;stroke:none"
         d="m 2030.23,507.352 v 228.527 l 47.67,21.461 c 30.18,13.601 84.19,34.902 84.19,-27.535 0,-25.157 -10.48,-51.387 -33.99,-74.403 l 41.63,-85.211 -49.9,-22.472 -41.61,86.73 -0.64,-0.301 V 528.68 l -47.35,-21.328 z m 47.35,151.652 8.26,3.418 c 21.6,9.734 30.19,27.535 30.19,46.336 0,16.359 -8.26,25.972 -32.1,14.027 l -6.35,-2.867 v -60.914 0" /><path
         id="path94"
         style="fill:#ffffff;fill-opacity:1;fill-rule:nonzero;stroke:none"
         d="m 2301.15,857.91 v -42.43 l -47.98,-21.601 v -49.715 l 42.26,19.035 v -42.426 l -42.26,-19.039 v -51.527 l 48.62,21.898 V 629.68 l -95.96,-43.231 v 228.52 l 95.32,42.941 v 0" /><path
         id="path96"
         style="fill:#ffffff;fill-opacity:1;fill-rule:nonzero;stroke:none"
         d="m 804.586,562.34 v -42.43 l -37.488,16.879 v -186.09 l -47.344,21.34 v 186.082 l -37.188,16.75 v 42.438 l 122.02,-54.969 v 0" /><path
         id="path98"
         style="fill:#ffffff;fill-opacity:1;fill-rule:nonzero;stroke:none"
         d="m 884.473,526.352 v -89.403 l 47.98,-21.617 v 89.406 l 47.34,-21.328 V 254.879 l -47.34,21.332 v 96.687 l -47.98,21.622 v -96.688 l -47.344,21.316 V 547.68 l 47.344,-21.328 v 0" /><path
         id="path100"
         style="fill:#ffffff;fill-opacity:1;fill-rule:nonzero;stroke:none"
         d="M 1120.96,419.832 V 377.391 L 1072.97,399 v -49.711 l 42.26,-19.027 v -42.43 l -42.26,19.039 v -51.519 l 48.63,-21.903 V 191.02 l -95.97,43.21 v 228.54 l 95.33,-42.938 v 0" /><path
         id="path102"
         style="fill:#ffffff;fill-opacity:1;fill-rule:nonzero;stroke:none"
         d="M 1336.95,1403.63 V 1175.1 l -47.35,21.33 v 228.52 l 47.35,-21.32 v 0" /><path
         id="path104"
         style="fill:#ffffff;fill-opacity:1;fill-rule:nonzero;stroke:none"
         d="m 1427.76,1362.71 59.1,-164.52 0.64,0.32 c -2.86,12.2 -3.82,24.45 -3.82,36.27 v 102.74 l 47.35,-21.33 v -228.51 l -44.81,20.18 -58.46,164.23 -0.63,-0.32 2.22,-24.04 0.32,-9.53 v -104.87 l -47.34,21.33 v 228.53 l 45.43,-20.48 v 0" /></g></g></svg>