<?xml version="1.0" encoding="UTF-8" standalone="no"?>
<svg
   xmlns:dc="http://purl.org/dc/elements/1.1/"
   xmlns:cc="http://creativecommons.org/ns#"
   xmlns:rdf="http://www.w3.org/1999/02/22-rdf-syntax-ns#"
   xmlns:svg="http://www.w3.org/2000/svg"
   xmlns="http://www.w3.org/2000/svg"
   viewBox="0 0 486.66666 87.480003"
   height="87.480003"
   width="486.66666"
   xml:space="preserve"
   id="svg2"
   version="1.1"><metadata
     id="metadata8"><rdf:RDF><cc:Work
         rdf:about=""><dc:format>image/svg+xml</dc:format><dc:type
           rdf:resource="http://purl.org/dc/dcmitype/StillImage" /></cc:Work></rdf:RDF></metadata><defs
     id="defs6" /><g
     transform="matrix(1.3333333,0,0,-1.3333333,0,87.48)"
     id="g10"><g
       transform="scale(0.1)"
       id="g12"><path
         id="path14"
         style="fill:#82868c;fill-opacity:1;fill-rule:nonzero;stroke:none"
         d="M 0,656.074 H 211.527 V 0.15625 H 0 V 656.074" /><path
         id="path16"
         style="fill:#82868c;fill-opacity:1;fill-rule:nonzero;stroke:none"
         d="m 1260.69,0.105469 h 729.04 V 157.758 H 1465.52 V 290.305 H 1260.69 V 0.105469" /><path
         id="path18"
         style="fill:#82868c;fill-opacity:1;fill-rule:nonzero;stroke:none"
         d="M 830.762,168.586 H 500.324 V 281.473 H 295.453 V 0.0859375 h 568.598 c 204.829,0 326.489,90.5351625 326.489,252.6520625 v 28.735 H 985.613 C 983.137,192.191 916.863,168.586 830.762,168.586" /><path
         id="path20"
         style="fill:#82868c;fill-opacity:1;fill-rule:nonzero;stroke:none"
         d="m 500.324,492.996 h 330.438 c 85.801,0 151.984,-23.555 154.851,-112.105 h 204.927 v 22.39 c 0,162.242 -121.66,252.793 -326.489,252.793 H 295.453 V 380.891 H 500.34 v 112.105 h -0.016" /><path
         id="path22"
         style="fill:#82868c;fill-opacity:1;fill-rule:nonzero;stroke:none"
         d="M 1989.87,503.777 V 656.074 H 1260.69 V 380.891 h 204.83 v 122.886 h 524.35" /><path
         id="path24"
         style="fill:#e93f3f;fill-opacity:1;fill-rule:nonzero;stroke:none"
         d="m 1535.8,389.859 h 445.08 V 272.73 H 1535.8 v 117.129" /><path
         id="path26"
         style="fill:#82868c;fill-opacity:1;fill-rule:nonzero;stroke:none"
         d="m 3381.62,281.473 h -364.1 L 2816.74,66.5977 2615.96,281.473 h -363.3 L 1989.73,0.105469 h 269.34 L 2434.12,202.934 2609.71,0.105469 h 414.22 L 3199.08,202.934 3374.36,0 H 3650 l -268.38,281.473" /><path
         id="path28"
         style="fill:#82868c;fill-opacity:1;fill-rule:nonzero;stroke:none"
         d="m 2816.74,589.477 194.97,-208.586 h 374.97 l 256.98,275.183 h -269.3 l -175.18,-202.886 -175.21,202.746 -414.17,0.14 -175.68,-202.886 -175.05,202.746 h -269.34 l 257.02,-275.043 h 375.27 l 194.72,208.586" /></g></g></svg>