<?xml version="1.0" encoding="UTF-8" standalone="no"?>
<svg
   xmlns:dc="http://purl.org/dc/elements/1.1/"
   xmlns:cc="http://creativecommons.org/ns#"
   xmlns:rdf="http://www.w3.org/1999/02/22-rdf-syntax-ns#"
   xmlns:svg="http://www.w3.org/2000/svg"
   xmlns="http://www.w3.org/2000/svg"
   viewBox="0 0 452.94666 133.69333"
   height="133.69333"
   width="452.94666"
   xml:space="preserve"
   id="svg2"
   version="1.1"><metadata
     id="metadata8"><rdf:RDF><cc:Work
         rdf:about=""><dc:format>image/svg+xml</dc:format><dc:type
           rdf:resource="http://purl.org/dc/dcmitype/StillImage" /></cc:Work></rdf:RDF></metadata><defs
     id="defs6" /><g
     transform="matrix(1.3333333,0,0,-1.3333333,0,133.69333)"
     id="g10"><g
       transform="scale(0.1)"
       id="g12"><path
         id="path14"
         style="fill:#4c5963;fill-opacity:1;fill-rule:nonzero;stroke:none"
         d="m 1891.38,469.613 c 0,85.325 44.35,162.446 122.65,192.485 H 1832.85 V 276.141 h 183.81 c -79.93,29.293 -125.28,107.207 -125.28,193.472" /><path
         id="path16"
         style="fill:#231f20;fill-opacity:1;fill-rule:nonzero;stroke:none"
         d="M 485.055,414.848 V 276.141 h 137.738 l -75.844,138.707 h -61.894" /><path
         id="path18"
         style="fill:#231f20;fill-opacity:1;fill-rule:nonzero;stroke:none"
         d="m 2509.16,342.547 c 50.94,0 67.92,32.32 67.92,76.133 V 662.098 H 2441.8 V 418.68 c 0,-43.813 16.97,-76.133 67.36,-76.133" /><path
         id="path20"
         style="fill:#231f20;fill-opacity:1;fill-rule:nonzero;stroke:none"
         d="m 2088.57,593.402 c -56.97,0 -99.69,-36.148 -99.69,-123.789 0,-56.953 23,-123.789 99.69,-123.789 72.3,0 99.69,63.535 99.69,123.789 0,61.352 -27.39,123.789 -99.69,123.789" /><path
         id="path22"
         style="fill:#231f20;fill-opacity:1;fill-rule:nonzero;stroke:none"
         d="m 2344.3,410.465 v 251.633 h -181.17 c 78.28,-30.039 122.63,-107.16 122.63,-192.485 0,-86.265 -45.35,-164.179 -125.27,-193.472 h 277.6 c -50.98,18.961 -93.79,60.797 -93.79,134.324" /><path
         id="path24"
         style="fill:#4c5963;fill-opacity:1;fill-rule:nonzero;stroke:none"
         d="m 46.1914,589.02 h -4.1992 v 72.277 H 0 V 276.141 h 143.746 v 1.543 h 0.121 V 589.02 H 46.1914" /><path
         id="path26"
         style="fill:#231f20;fill-opacity:1;fill-rule:nonzero;stroke:none"
         d="m 1590.21,438.941 v -162.8 h 145.15 v 162.8 h -145.15" /><path
         id="path28"
         style="fill:#231f20;fill-opacity:1;fill-rule:nonzero;stroke:none"
         d="M 343.242,662.098 V 589.02 H 241.363 V 277.684 h 0.278 v -1.543 h 145.918 v 385.957 h -44.317" /><path
         id="path30"
         style="fill:#231f20;fill-opacity:1;fill-rule:nonzero;stroke:none"
         d="M 1069.97,662.098 V 589.02 H 880.453 V 517.816 H 1057.37 V 442.23 H 880.453 v -92.031 h 205.957 v -74.058 h 51.42 v 385.957 h -67.86" /><path
         id="path32"
         style="fill:#231f20;fill-opacity:1;fill-rule:nonzero;stroke:none"
         d="M 3222.74,350.199 H 3397.1 V 442.23 H 3222.74 V 350.199" /><path
         id="path34"
         style="fill:#4c5963;fill-opacity:1;fill-rule:nonzero;stroke:none"
         d="m 617.383,662.098 c 66.762,-9.914 106.48,-50.344 106.48,-125.657 0,-50.39 -31.761,-90.925 -80.523,-105.168 l 88.418,-155.132 h 51.195 v 385.957 h -165.57" /><path
         id="path36"
         style="fill:#4c5963;fill-opacity:1;fill-rule:nonzero;stroke:none"
         d="m 2713.4,343.094 74.5,48.203 c 33.96,-30.688 66.26,-48.75 112.82,-48.75 25.76,0 72.87,10.957 72.87,44.91 0,19.719 -14.79,29.578 -43.83,34.504 l -81.06,13.141 c -72.31,11.503 -111.75,49.855 -111.75,107.367 0,63.035 34.16,101.211 81.67,119.629 H 2674.58 V 410.465 c 0,-73.527 -42.81,-115.363 -93.97,-134.324 h 229.97 c -34.36,11.968 -66.31,33.257 -97.18,66.953" /><path
         id="path38"
         style="fill:#231f20;fill-opacity:1;fill-rule:nonzero;stroke:none"
         d="M 574.336,592.309 H 485.055 V 487.137 h 89.281 c 31.223,0.547 52.031,16.441 52.031,52.593 0,36.157 -20.808,52.036 -52.031,52.579" /><path
         id="path40"
         style="fill:#231f20;fill-opacity:1;fill-rule:nonzero;stroke:none"
         d="M 3222.74,517.816 H 3397.1 V 589.02 H 3222.74 V 517.816" /><path
         id="path42"
         style="fill:#231f20;fill-opacity:1;fill-rule:nonzero;stroke:none"
         d="m 2974.58,662.098 c 35.51,-12.375 68.08,-32.993 93.76,-61.567 l -73.95,-53.133 c -25.74,31.219 -63.54,49.286 -104.61,49.286 -22.46,0 -55.32,-14.239 -55.32,-39.43 0,-20.813 16.98,-31.234 54.22,-37.246 l 37.27,-6.02 c 77.76,-12.597 141.85,-36.695 141.85,-111.187 0,-74.321 -42.53,-110.254 -92.19,-126.66 h 149.63 v 385.957 h -150.66" /><path
         id="path44"
         style="fill:#4c5963;fill-opacity:1;fill-rule:nonzero;stroke:none"
         d="M 1424.83,662.098 V 589.02 h -189.51 v -71.204 h 176.92 V 442.23 h -176.92 v -92.031 h 205.96 v -74.058 h 51.43 v 385.957 h -67.88" /><path
         id="path46"
         style="fill:#231f20;fill-opacity:1;fill-rule:nonzero;stroke:none"
         d="M 1735.36,524.391 V 662.098 H 1590.21 V 524.391 h 145.15" /><path
         id="path48"
         style="fill:#231f20;fill-opacity:1;fill-rule:nonzero;stroke:none"
         d="m 1662.94,1002.74 -256.52,-249.033 505.46,0.32 z" /><path
         id="path50"
         style="fill:#231f20;fill-opacity:1;fill-rule:nonzero;stroke:none"
         d="m 1346.03,151.773 h -22.27 c -2.32,0 -3.5,-1.171 -3.5,-3.507 V 5.23828 c 0,-2.35156 1.18,-3.51953 3.5,-3.51953 h 22.27 c 2.32,0 3.48,1.16797 3.48,3.51953 V 148.266 c 0,2.336 -1.16,3.507 -3.48,3.507" /><path
         id="path52"
         style="fill:#231f20;fill-opacity:1;fill-rule:nonzero;stroke:none"
         d="m 1448.54,151.773 h -22.26 c -2.33,0 -3.5,-1.171 -3.5,-3.507 V 75.7383 l -26.01,72.7737 c -0.34,0.84 -0.96,1.582 -1.89,2.254 -0.91,0.668 -1.87,1.007 -2.86,1.007 h -16.51 c -2.33,0 -3.49,-1.171 -3.49,-3.507 V 5.23828 c 0,-2.35156 1.16,-3.51953 3.49,-3.51953 h 22.27 c 2.34,0 3.5,1.16797 3.5,3.51953 V 70.25 l 26.48,-65.26562 c 0.35,-0.83985 0.98,-1.58985 1.88,-2.25391 0.94,-0.66016 1.88,-1.01172 2.9,-1.01172 h 16 c 2.33,0 3.49,1.16797 3.49,3.51953 V 148.266 c 0,2.336 -1.16,3.507 -3.49,3.507" /><path
         id="path54"
         style="fill:#231f20;fill-opacity:1;fill-rule:nonzero;stroke:none"
         d="m 1534.06,144.266 c -2.85,2.839 -6.17,5.086 -10,6.754 -3.85,1.671 -7.93,2.492 -12.24,2.492 h -9.53 c -4.31,0 -8.4,-0.821 -12.25,-2.492 -3.82,-1.668 -7.16,-3.915 -9.99,-6.754 -2.85,-2.832 -5.09,-6.172 -6.75,-10 -1.68,-3.84 -2.51,-7.922 -2.51,-12.25 V 99.5078 c 0,-3.8359 0.54,-6.9336 1.63,-9.2461 1.08,-2.3554 2.88,-4.6679 5.37,-7.0156 l 32.27,-24.7422 c 1.5,-1.3516 2.49,-2.8437 2.99,-4.5039 0.5,-1.6719 0.83,-3.6055 1,-5.7617 v -15.5 c 0,-1.668 -0.57,-3.086 -1.74,-4.2461 -1.18,-1.1641 -2.58,-1.7578 -4.24,-1.7578 h -2.03 c -1.66,0 -3.07,0.5937 -4.25,1.7578 -1.16,1.1601 -1.72,2.5781 -1.72,4.2461 v 20.7539 c 0,2.332 -1.1,3.1641 -3.26,2.5 l -22.78,-5.9961 c -2.15,-0.6758 -3.24,-2.168 -3.24,-4.5117 V 31.4883 c 0,-4.3438 0.83,-8.4258 2.51,-12.2461 1.66,-3.8477 3.9,-7.1758 6.75,-10.00782 2.83,-2.84375 6.17,-5.08985 9.99,-6.7461 C 1493.89,0.820313 1497.98,0 1502.29,0 h 9.53 c 4.31,0 8.39,0.820313 12.24,2.48828 3.83,1.65625 7.15,3.90235 10,6.7461 2.82,2.83202 5.08,6.16012 6.74,10.00782 1.67,3.8203 2.53,7.9023 2.53,12.2461 v 25.5 c -0.36,3.0078 -0.88,5.7109 -1.65,8.1328 -0.73,2.4141 -2.45,4.7852 -5.12,7.1211 l -32.75,24.5234 c -1.35,1.3164 -2.26,2.6446 -2.76,3.9924 -0.48,1.328 -0.85,2.91 -0.98,4.746 v 15.254 c 0,1.66 0.56,3.094 1.72,4.258 1.18,1.164 2.59,1.75 4.25,1.75 h 2.03 c 1.66,0 3.06,-0.586 4.24,-1.75 1.17,-1.164 1.74,-2.598 1.74,-4.258 v -16.25 c 0,-2.332 1.1,-3.164 3.24,-2.5 l 22.78,6.008 c 2.17,0.652 3.26,2.156 3.26,4.492 v 9.508 c 0,4.328 -0.86,8.41 -2.53,12.25 -1.66,3.828 -3.92,7.168 -6.74,10" /><path
         id="path56"
         style="fill:#231f20;fill-opacity:1;fill-rule:nonzero;stroke:none"
         d="m 1621.31,151.773 h -64.5 c -2.33,0 -3.49,-1.171 -3.49,-3.507 v -22.262 c 0,-2.336 1.16,-3.496 3.49,-3.496 h 17.5 V 5.23828 c 0,-1.0039 0.38,-1.84375 1.13,-2.50781 0.74,-0.66016 1.55,-1.01172 2.38,-1.01172 h 22.24 c 2.32,0 3.52,1.16797 3.52,3.51953 V 122.508 h 17.73 c 2.35,0 3.51,1.16 3.51,3.496 v 22.262 c 0,2.336 -1.16,3.507 -3.51,3.507" /><path
         id="path58"
         style="fill:#231f20;fill-opacity:1;fill-rule:nonzero;stroke:none"
         d="m 1668.09,151.773 h -22.25 c -2.34,0 -3.51,-1.171 -3.51,-3.507 V 5.23828 c 0,-2.35156 1.17,-3.51953 3.51,-3.51953 h 22.25 c 2.32,0 3.5,1.16797 3.5,3.51953 V 148.266 c 0,2.336 -1.18,3.507 -3.5,3.507" /><path
         id="path60"
         style="fill:#231f20;fill-opacity:1;fill-rule:nonzero;stroke:none"
         d="m 1757.1,151.773 h -64.51 c -2.33,0 -3.49,-1.171 -3.49,-3.507 v -22.262 c 0,-2.336 1.16,-3.496 3.49,-3.496 h 17.5 V 5.23828 c 0,-1.0039 0.38,-1.84375 1.13,-2.50781 0.73,-0.66016 1.54,-1.01172 2.38,-1.01172 h 22.24 c 2.33,0 3.53,1.16797 3.53,3.51953 V 122.508 h 17.73 c 2.34,0 3.51,1.16 3.51,3.496 v 22.262 c 0,2.336 -1.17,3.507 -3.51,3.507" /><path
         id="path62"
         style="fill:#231f20;fill-opacity:1;fill-rule:nonzero;stroke:none"
         d="m 1844.64,151.773 h -22.28 c -2.32,0 -3.49,-1.171 -3.49,-3.507 V 32.7383 c 0,-1.668 -0.59,-3.086 -1.75,-4.2461 -1.16,-1.1641 -2.6,-1.7578 -4.25,-1.7578 h -2 c -1.66,0 -3.09,0.5937 -4.25,1.7578 -1.16,1.1601 -1.76,2.5781 -1.76,4.2461 V 148.266 c 0,2.336 -1.16,3.507 -3.48,3.507 h -22.28 c -2.32,0 -3.48,-1.171 -3.48,-3.507 V 31.4883 c 0,-4.3438 0.83,-8.4258 2.5,-12.2461 1.65,-3.8477 3.9,-7.1758 6.75,-10.00782 2.83,-2.84375 6.16,-5.08985 10,-6.7461 C 1798.69,0.820313 1802.77,0 1807.12,0 h 9.49 c 4.36,0 8.44,0.820313 12.26,2.48828 3.84,1.65625 7.17,3.90235 10.02,6.7461 2.83,2.83202 5.08,6.16012 6.74,10.00782 1.66,3.8203 2.49,7.9023 2.49,12.2461 V 148.266 c 0,2.336 -1.16,3.507 -3.48,3.507" /><path
         id="path64"
         style="fill:#231f20;fill-opacity:1;fill-rule:nonzero;stroke:none"
         d="m 1928.63,151.773 h -64.51 c -2.32,0 -3.49,-1.171 -3.49,-3.507 v -22.262 c 0,-2.336 1.17,-3.496 3.49,-3.496 h 17.51 V 5.23828 c 0,-1.0039 0.37,-1.84375 1.13,-2.50781 0.74,-0.66016 1.55,-1.01172 2.38,-1.01172 h 22.24 c 2.33,0 3.52,1.16797 3.52,3.51953 V 122.508 h 17.73 c 2.36,0 3.52,1.16 3.52,3.496 v 22.262 c 0,2.336 -1.16,3.507 -3.52,3.507" /><path
         id="path66"
         style="fill:#231f20;fill-opacity:1;fill-rule:nonzero;stroke:none"
         d="m 2007.41,151.773 h -54.26 c -2.34,0 -3.51,-1.171 -3.51,-3.507 V 5.23828 c 0,-2.35156 1.17,-3.51953 3.51,-3.51953 h 54.26 c 2.33,0 3.51,1.16797 3.51,3.51953 V 27.4844 c 0,2.3359 -1.18,3.5078 -3.51,3.5078 h -28.49 v 33.75 h 24.74 c 2.33,0 3.52,1.1601 3.52,3.4961 v 22.2656 c 0,2.3359 -1.19,3.4961 -3.52,3.4961 h -24.74 v 28.508 h 28.49 c 2.33,0 3.51,1.16 3.51,3.496 v 22.262 c 0,2.336 -1.18,3.507 -3.51,3.507" /><path
         id="path68"
         style="fill:#231f20;fill-opacity:1;fill-rule:nonzero;stroke:none"
         d="m 143.746,276.141 h 0.121 v 1.543 h -0.121 v -1.543" /><path
         id="path70"
         style="fill:#231f20;fill-opacity:1;fill-rule:nonzero;stroke:none"
         d="m 241.363,277.684 v -1.543 h 0.278 v 1.543 h -0.278" /></g></g></svg>